PathFileType	4	(X/Y/Z)	C:/Users/beibeiliu/ov580/test_trc/User3\sequence.12_training_dense_left.trc
DataRate	CameraRate	NumFrames	NumMarkers	Units	OrigDataRate	OrigDataStartFrame	OrigNumFrames
120	120	21	19	mm	120	76	101
Frame#	Time	ThumbCMC			ThumbMCP			ThumbIP			ThumbTip			IndexMCP			IndexPIP			IndexTip			MiddleMCP			MiddlePIP			MiddleTip			RingMCP			RingPIP			RingTip			PinkyMCP			PinkyPIP			PinkyTip			BackHand1			BackHand2			BackHand3	
		X0	Y0	Z0	X1	Y1	Z1	X2	Y2	Z2	X3	Y3	Z3	X4	Y4	Z4	X5	Y5	Z5	X6	Y6	Z6	X7	Y7	Z7	X8	Y8	Z8	X9	Y9	Z9	X10	Y10	Z10	X11	Y11	Z11	X12	Y12	Z12	X13	Y13	Z13	X14	Y14	Z14	X15	Y15	Z15	X16	Y16	Z16	X17	Y17	Z17	X18	Y18	Z18	
75	0.625	-236.553	-40.9926	3.2506	-229.488	-17.5299	-22.5058	-216.365	-2.7719	-45.6251	-191.396	3.26832	-55.4761	-207.805	-67.1302	-64.6174	-202.596	-59.6332	-93.3248	-200.749	-51.6818	-116.06	-187.715	-59.7447	-67.3251	-178.281	-29.7489	-78.1633	-184.692	-6.02307	-44.5269	-169.707	-71.7144	-53.0923	-163.927	-66.6921	-79.6044	-150.643	-50.0954	-103.455	-157.008	-70.6019	-27.4509	-141.947	-78.1696	-44.8441	-133.543	-78.9838	-69.8054	-185.844	-81.0027	-5.82324	-192.441	-82.9907	27.9366	-217.694	-78.963	5.01772	
76	0.633333	-247.099	-53.5574	5.62272	-248.217	-32.382	-20.9725	-235.018	-21.7826	-47.4781	-216.703	-12.6618	-64.0338	-231.412	-84.5472	-59.0806	-231.054	-81.1435	-88.6865	-226.161	-74.3968	-111.57	-206.456	-76.8415	-68.7299	-202.784	-48.4312	-84.2455	-209.536	-20.7368	-58.0739	-189.336	-84.4649	-53.6561	-179.955	-81.2999	-83.0384	-176.187	-68.5313	-105.214	-166.662	-79.513	-31.8257	-156.202	-85.651	-49.8134	-147.511	-89.0625	-77.4985	-192.248	-86.6376	0.0974007	-189.362	-87.5105	26.1706	-222.502	-89.7852	6.73002	
77	0.641667	-250.928	-64.4238	14.795	-256.916	-50.5467	-17.8604	-254.366	-41.0453	-47.9572	-237.408	-37.4422	-66.2386	-243.931	-107.128	-48.0109	-249.66	-109.113	-77.2803	-249.887	-106.347	-103.549	-225.173	-103.592	-59.0644	-226.421	-82.0348	-82.9444	-225.053	-47.0388	-64.9877	-202.974	-105.438	-49.4668	-199.545	-106.809	-78.7761	-200.162	-98.8288	-105.869	-181.689	-97.7658	-31.3326	-172.222	-106.828	-51.2426	-168.958	-109.916	-73.2276	-198.6	-101.044	4.19143	-195.037	-91.4838	32.191	-228.685	-99.518	17.0991	
78	0.65	-259.67	-70.9441	20.5805	-263.446	-66.8623	-16.1333	-262.61	-64.8732	-44.7489	-246.405	-68.436	-64.4454	-260.036	-129.572	-32.6197	-268.68	-136.764	-56.5264	-270.887	-137.447	-82.449	-236.205	-130.647	-41.2298	-241.648	-113.073	-73.6924	-240.152	-77.2972	-65.6281	-218.122	-131.04	-32.2293	-216.948	-140.977	-62.4232	-220.011	-137.772	-87.7685	-194.916	-118.215	-20.2215	-188.212	-136.948	-41.7206	-185.892	-143.912	-63.5662	-211.061	-111.94	16.2476	-203.414	-100.82	38.582	-240.254	-105.387	30.1326	
79	0.658333	-260.23	-73.7944	21.1569	-265.968	-73.1784	-13.6071	-269.167	-77.5497	-44.6245	-254.186	-89.73	-64.1684	-276.199	-138.568	-14.3479	-287.036	-150.998	-42.8072	-293.355	-153.496	-64.2426	-256.679	-147.736	-25.8315	-261.125	-139.991	-56.8802	-246.921	-104.221	-60.6378	-240.523	-153.143	-17.9405	-241.193	-164.812	-42.357	-246.106	-165.468	-69.1089	-212.053	-142.456	-6.5234	-208.855	-161.832	-21.483	-211.444	-171.774	-45.1893	-221.853	-123.475	27.5861	-215.093	-110.905	48.6119	-250.303	-109.169	40.8363	
80	0.666667	-258.236	-68.4431	20.4888	-264.628	-66.0306	-13.6741	-267.268	-79.4373	-42.4512	-256.866	-93.8814	-59.8611	-296.76	-131.492	-8.0436	-308.114	-142.203	-33.7009	-314.888	-143	-59.2703	-279.085	-144.766	-15.7541	-278.248	-141.353	-49.7749	-257.983	-111.309	-56.6445	-263.348	-150.214	-5.33185	-272.149	-164.321	-27.3387	-275.472	-167.717	-59.4923	-232.829	-154.39	3.50321	-241.272	-168.727	-9.98641	-243.739	-182.474	-32.7276	-239.559	-130.478	33.7994	-227.072	-109.209	53.7123	-259.488	-99.7224	45.2283	
81	0.675	-252.593	-50.7939	18.8534	-256.126	-53.589	-16.9657	-261.399	-63.2568	-45.5327	-255.177	-82.8676	-61.3293	-307.28	-99.5417	-8.32722	-321.068	-108.587	-31.9086	-325.689	-112.272	-60.6276	-298.924	-116.807	-16.9265	-295.592	-114.685	-50.3141	-259.808	-101.424	-57.483	-283.665	-132.947	-4.07195	-296.295	-145.181	-25.6687	-301.304	-146.168	-58.9593	-262.526	-141.514	4.47338	-273.719	-156.254	-8.21605	-279.418	-169.815	-31.5745	-254.155	-117.973	36.429	-235.718	-107.426	54.5209	-264.443	-83.8213	43.4469	
82	0.683333	-236.791	-37.7003	18.1164	-236.015	-38.2744	-14.5753	-243.429	-46.7473	-47.4211	-246.52	-68.0601	-60.4442	-304.631	-58.5231	-14.0576	-317.746	-59.2564	-38.5648	-322.626	-64.4883	-64.4598	-300.36	-79.7871	-19.2952	-292.472	-79.6913	-56.1337	-255.032	-80.7844	-59.4934	-296.957	-99.7813	-8.05545	-310.603	-107.296	-31.0063	-314.05	-105.131	-61.249	-275.015	-116.251	3.41637	-294.676	-126.91	-10.3732	-304.828	-133.805	-32.0336	-268.075	-94.0702	32.8842	-246.567	-91.3891	55.2218	-260.902	-62.8801	44.0146	
83	0.691667	-216.5	-30.2883	20.5916	-214.277	-25.9439	-16.9374	-223.019	-32.9924	-45.5325	-232.421	-51.6323	-63.1227	-284.183	-20.9709	-18.6057	-296.186	-17.0693	-44.9285	-301.859	-15.3542	-69.4071	-293.136	-43.531	-27.7434	-283.419	-47.2648	-58.9227	-249.654	-60.0467	-62.5112	-294.195	-62.4875	-12.6342	-309.285	-62.9744	-36.5454	-313.171	-64.1386	-67.4777	-283.65	-88.4114	-0.895357	-302.946	-91.7593	-15.0141	-316.98	-88.7758	-37.7011	-268.656	-72.0301	29.226	-249.403	-78.2479	52.4293	-252.23	-41.068	40.0974	
84	0.7	-201.661	-23.159	18.521	-196.541	-21.3683	-17.0941	-200.65	-21.426	-47.9708	-216.444	-37.7348	-64.1181	-258.494	6.18134	-20.1093	-267.23	14.2237	-50.0364	-269.022	21.2253	-70.2517	-271.037	-9.28316	-31.0276	-266.159	-15.9197	-61.2199	-234.156	-40.2066	-65.2704	-284.069	-29.8403	-17.9699	-294.667	-21.5566	-44.4651	-298.026	-19.8953	-72.2873	-282.868	-53.3944	-5.2262	-301.355	-53.5874	-20.063	-313.234	-45.8035	-40.0599	-266.054	-47.4703	27.4402	-247.013	-59.921	51.2833	-237.905	-23.7163	38.8896	
85	0.708333	-185.223	-25.0716	19.786	-182.625	-22.6776	-15.4641	-186.946	-22.4323	-44.4425	-203.388	-30.1154	-64.7298	-233.055	20.7493	-23.9003	-235.664	30.5167	-46.2598	-237.742	39.1835	-71.5753	-247.535	8.90147	-31.3096	-238.697	0.13304	-64.9073	-219.227	-29.9704	-65.748	-267.418	-6.82599	-21.4451	-271.595	5.72602	-45.7862	-276.955	6.53871	-75.8349	-276.412	-30.6811	-8.58246	-287.949	-22.5107	-23.3879	-302.237	-13.5613	-46.7957	-253.631	-30.9888	25.2278	-242.668	-42.6158	46.5997	-220.406	-15.8407	38.9054	
86	0.716667	-175.007	-28.8534	19.7702	-167.027	-26.3872	-16.3715	-168.069	-25.4861	-45.5719	-191.33	-29.1482	-67.7939	-209.619	24.4195	-25.4417	-206.607	39.4943	-50.9186	-208.183	46.7556	-76.6163	-228.663	14.5736	-34.4554	-219.347	7.53875	-65.951	-205.669	-32.9925	-65.5922	-245.15	6.71251	-25.4461	-251.441	18.5649	-52.5429	-253.168	21.5246	-76.1508	-257.972	-14.8075	-11.9789	-269.846	-0.529935	-29.4639	-282.68	5.87252	-48.6061	-240.133	-21.0019	22.1852	-233.772	-31.362	44.0833	-206.267	-9.38995	36.0929	
87	0.725	-161.969	-34.7116	17.3749	-152.478	-35.072	-18.5938	-159.429	-33.532	-46.8161	-174.328	-36.5529	-69.73	-187.722	23.4746	-32.2564	-184.87	33.7001	-55.9356	-182.445	40.8168	-81.9751	-204.811	16.1762	-42.2805	-197.47	3.48941	-72.1967	-190.822	-33.4785	-68.2813	-229.022	9.71486	-30.003	-228.447	21.9025	-54.804	-229.043	24.4628	-84.1969	-242.364	-9.50393	-16.0953	-255.766	5.94292	-33.7735	-262.988	13.9455	-54.0183	-227.305	-13.6771	18.2814	-223.579	-30.0903	43.5073	-192.734	-9.95742	31.9381	
88	0.733333	-152.432	-42.292	14.1656	-144.16	-48.1624	-17.8085	-145.544	-48.8682	-52.2594	-169.1	-51.6426	-68.4676	-171.257	9.69972	-37.6613	-164.654	19.7626	-67.9987	-165.518	21.9755	-89.9248	-192.467	4.84709	-51.8285	-186.387	-13.818	-78.5581	-180.052	-47.9889	-70.7058	-214.074	1.65059	-35.9536	-211.906	12.1606	-61.5926	-213.32	11.4943	-90.5904	-228.842	-12.0657	-20.3648	-238.125	1.69516	-37.1897	-248.292	8.97048	-59.2737	-211.917	-14.9788	14.4504	-213.995	-27.1248	38.7261	-178.854	-12.8118	22.8811	
89	0.741667	-145.395	-54.1683	14.5826	-137.49	-65.5779	-15.8666	-142.56	-72.2329	-46.6448	-159.263	-78.094	-62.9779	-159.624	-10.2708	-46.3473	-154.632	-6.88944	-76.779	-150.502	-9.02571	-102.72	-180.897	-15.7231	-58.0713	-174.978	-38.7875	-81.7448	-176.099	-73.5081	-67.5481	-199.801	-12.7794	-43.4417	-202.78	-8.22038	-70.6955	-200.707	-15.846	-98.0189	-221.494	-25.8208	-22.4282	-228.029	-11.8614	-44.0203	-232.688	-6.94595	-69.6384	-203.982	-22.8421	9.15262	-204.935	-29.5428	37.0502	-167.883	-20.4104	19.1643	
90	0.75	-135.803	-68.0827	19.3065	-134.101	-87.4783	-9.53778	-138.456	-104.038	-39.8592	-162.658	-108.525	-51.5294	-155.535	-39.3377	-51.254	-151.399	-42.9143	-79.0782	-150.602	-53.9646	-106.874	-175.145	-45.8566	-57.0464	-174.071	-71.0556	-79.8059	-174.111	-105.871	-57.0776	-193.644	-41.0359	-45.7274	-197.887	-44.4569	-76.0708	-201.786	-61.856	-103.213	-216.707	-43.614	-27.4466	-220.269	-37.6569	-46.6802	-227.429	-37.9969	-70.1391	-191.238	-36.5038	5.01249	-196.497	-36.9575	31.7451	-158.071	-32.1537	15.3693	
91	0.758333	-132.502	-80.3021	20.5165	-129.505	-108.099	-2.44478	-138.253	-128.605	-24.621	-161.67	-135.907	-35.2267	-151.258	-67.6904	-57.437	-152.27	-76.9499	-79.9576	-151.654	-90.2713	-102.632	-172.308	-72.2039	-56.29	-174.013	-106.427	-72.7112	-175.639	-132.918	-46.0918	-194.195	-65.9499	-51.3255	-201.003	-76.5171	-72.427	-205.404	-97.4201	-92.7825	-211.45	-66.0219	-23.3741	-222.483	-63.0878	-47.2758	-231.847	-65.9818	-71.093	-188.412	-48.682	1.52644	-189.294	-42.9495	28.173	-156.477	-47.3756	9.46636	
92	0.766667	-132.263	-89.3258	24.7937	-132.693	-117.385	6.2236	-140.42	-141.297	-17.7794	-165.064	-147.204	-25.7069	-151.531	-81.1598	-50.7039	-150.257	-92.8558	-78.4884	-152.107	-106.61	-96.3374	-175.568	-87.306	-54.4928	-177.104	-119.841	-65.6221	-174.41	-147.223	-36.2758	-194.866	-78.9813	-46.7453	-199.874	-93.1279	-70.7862	-201.976	-112.368	-87.3966	-211.912	-74.2095	-23.3316	-219.768	-74.961	-45.6078	-227.767	-82.3967	-70.3708	-189.416	-57.4208	3.2552	-184.712	-48.7133	32.3521	-156.86	-55.3937	14.0814	
93	0.775	-131.248	-92.717	29.8301	-130.514	-123.986	9.74735	-138.404	-145.467	-6.02492	-159.541	-157.966	-19.1225	-141.653	-87.161	-46.034	-140.983	-100.448	-71.6888	-141.696	-118.448	-93.8118	-166.342	-97.3053	-53.6202	-169.323	-127.21	-61.2679	-173.368	-151.108	-30.3195	-189.014	-85.9093	-46.738	-192.095	-99.2429	-66.135	-193.415	-124.338	-84.6138	-203.088	-78.4842	-23.3189	-212.487	-80.7956	-46.7052	-221.062	-93.3449	-69.406	-180.201	-59.5312	2.91992	-179.492	-52.3974	30.6104	-149.911	-57.8648	14.7267	
94	0.783333	-130.381	-82.5474	33.0329	-120.026	-117.816	18.7323	-127.286	-144.032	-0.513149	-148.467	-153.913	-8.08659	-135.904	-91.5939	-46.1316	-136.481	-106.378	-67.2409	-132.688	-124.611	-83.8407	-158.296	-100.988	-50.3647	-156.827	-134.353	-53.8146	-161.243	-152.97	-18.8211	-181.745	-92.1986	-43.4997	-181.626	-108.731	-62.7716	-184.851	-138.431	-77.0455	-199.219	-85.7157	-23.1024	-211.031	-91.9172	-42.611	-213.787	-108.45	-66.3747	-179.365	-62.3662	3.71141	-183.067	-48.5201	28.0914	-152.378	-54.818	13.6237	
95	0.791667	-132.948	-60.6467	28.9451	-112.216	-89.5256	20.431	-111.949	-118.287	3.50861	-123.002	-140.903	-0.431862	-138.69	-85.0583	-47.9298	-132.367	-103.5	-66.222	-123.99	-124.059	-81.294	-158.121	-101.27	-47.7681	-142.624	-128.047	-50.1966	-137.36	-142.796	-11.4779	-180.164	-101.416	-39.8514	-174.566	-119.205	-55.4215	-164.288	-146.514	-62.6151	-200.091	-99.663	-16.2709	-202.221	-115.588	-41.9479	-196.272	-131.981	-57.5175	-190.981	-65.8525	-1.27011	-193.695	-51.0389	25.9404	-160.687	-43.5323	6.49508	
